<svg xmlns="http://www.w3.org/2000/svg" viewBox="0 0 34 36">
  <path fill="#a989f5" d="M7.5 27H34V0H6C2.69 0 0 2.69 0 6v24c0 3.31 2.69 6 6 6h28v-4H7.5a2.5 2.5 0 0 1 0-5M10 12.27l.02-.06 2.21-5.76c.04-.11.12-.21.23-.27.1-.07.22-.1.35-.09.12 0 .24.05.33.13s.16.18.2.3l1.49 4.56h6.03l1.49-4.56c.03-.12.1-.22.2-.3s.21-.12.33-.13c.12 0 .24.02.35.09.1.07.18.16.23.27l2.21 5.76.02.06c.65 1.7.1 3.63-1.36 4.73l-3.38 2.53-1.66 1.26-1.01.76a.69.69 0 0 1-.82 0l-1.01-.76-1.66-1.26-3.36-2.52h-.02v-.02a4.09 4.09 0 0 1-1.36-4.73Z"/>
</svg>
